<mxfile host="65bd71144e">
    <diagram id="Z2IokZHTgsMeTScMqyVd" name="Page-1">
        <mxGraphModel dx="451" dy="422" grid="1" gridSize="10" guides="1" tooltips="1" connect="1" arrows="1" fold="1" page="1" pageScale="1" pageWidth="850" pageHeight="1100" math="0" shadow="0">
            <root>
                <mxCell id="0"/>
                <mxCell id="1" parent="0"/>
                <mxCell id="4" style="edgeStyle=none;html=1;exitX=0.5;exitY=1;exitDx=0;exitDy=0;entryX=0.5;entryY=0;entryDx=0;entryDy=0;entryPerimeter=0;fontSize=10;" edge="1" parent="1" source="2" target="3">
                    <mxGeometry relative="1" as="geometry"/>
                </mxCell>
                <mxCell id="2" value="404 Page" style="shape=offPageConnector;whiteSpace=wrap;html=1;size=0.25;fontSize=10;fontFamily=Helvetica;rounded=0;" vertex="1" parent="1">
                    <mxGeometry x="100" y="40" width="80" height="80" as="geometry"/>
                </mxCell>
                <mxCell id="6" style="edgeStyle=none;html=1;exitX=0.5;exitY=1;exitDx=0;exitDy=0;exitPerimeter=0;entryX=0.5;entryY=0;entryDx=0;entryDy=0;fontSize=10;" edge="1" parent="1" source="3" target="5">
                    <mxGeometry relative="1" as="geometry"/>
                </mxCell>
                <mxCell id="3" value="Display 404 Page" style="strokeWidth=1;html=1;shape=mxgraph.flowchart.display;whiteSpace=wrap;fontSize=10;rounded=0;fontFamily=Helvetica;" vertex="1" parent="1">
                    <mxGeometry x="80" y="160" width="120" height="80" as="geometry"/>
                </mxCell>
                <mxCell id="8" style="edgeStyle=none;html=1;exitX=0.5;exitY=1;exitDx=0;exitDy=0;entryX=0.5;entryY=0;entryDx=0;entryDy=0;fontSize=10;" edge="1" parent="1" source="5" target="7">
                    <mxGeometry relative="1" as="geometry"/>
                </mxCell>
                <mxCell id="5" value="Wait for student to press &quot;Go Back&quot;" style="shape=delay;whiteSpace=wrap;html=1;hachureGap=4;fontFamily=Helvetica;fontSize=10;rounded=0;" vertex="1" parent="1">
                    <mxGeometry x="80" y="280" width="120" height="40" as="geometry"/>
                </mxCell>
                <mxCell id="10" style="edgeStyle=none;html=1;exitX=0.5;exitY=1;exitDx=0;exitDy=0;entryX=0.5;entryY=0;entryDx=0;entryDy=0;fontSize=10;" edge="1" parent="1" source="7" target="9">
                    <mxGeometry relative="1" as="geometry"/>
                </mxCell>
                <mxCell id="7" value="Change requestPath&lt;br style=&quot;font-size: 10px;&quot;&gt;&amp;nbsp;to /dashboard/" style="whiteSpace=wrap;html=1;fontSize=10;hachureGap=4;rounded=0;fontFamily=Helvetica;" vertex="1" parent="1">
                    <mxGeometry x="80" y="360" width="120" height="40" as="geometry"/>
                </mxCell>
                <mxCell id="9" value="Reroute" style="shape=offPageConnector;whiteSpace=wrap;html=1;strokeWidth=1;fontFamily=Helvetica;fontSize=10;size=0.25;rounded=0;" vertex="1" parent="1">
                    <mxGeometry x="100" y="440" width="80" height="80" as="geometry"/>
                </mxCell>
            </root>
        </mxGraphModel>
    </diagram>
</mxfile>